<svg width="362" height="42" viewBox="0 0 362 42" fill="none" xmlns="http://www.w3.org/2000/svg">
<g clip-path="url(#clip0_723_13)">
<path d="M43.303 15.7457L53.5716 0H21.4287V42H51.0216C52.1487 42 52.9244 40.8686 52.5216 39.8186L43.303 15.7457ZM45.163 37.9243C44.7216 38.3743 44.203 38.7429 43.6116 38.9957C43.0244 39.2529 42.373 39.3943 41.653 39.3943H28.003L41.1816 19.0671L46.1401 32.5329C46.4316 33.1971 46.5559 33.8571 46.5559 34.5043C46.5601 35.7814 46.0373 37.0157 45.163 37.9243Z" fill="white"/>
</g>
<path d="M17.1431 1.71429L19.7145 0V42H17.1431V1.71429Z" fill="white"/>
<path d="M12.8574 6.85686L15.4289 5.14258V41.9997H12.8574V6.85686Z" fill="white"/>
<path d="M8.57129 12.0004L11.1427 10.2861V42.0004H8.57129V12.0004Z" fill="white"/>
<path d="M4.28564 17.143L6.85707 15.4287V42.0001H4.28564V17.143Z" fill="white"/>
<path d="M0 22.2856L2.57143 20.5713V41.9999H0V22.2856Z" fill="white"/>
<path d="M72.8755 36V6.6H84.8455C90.0955 6.6 94.0435 9.582 94.0435 14.454C94.0435 17.142 92.8255 19.032 91.5235 20.04C94.0855 21.006 96.4795 23.484 96.4795 27.39C96.4795 32.514 92.5735 36 86.8615 36H72.8755ZM79.9315 18.276H83.7115C85.8955 18.276 87.0295 17.1 87.0295 15.462C87.0295 13.824 85.8955 12.648 83.7115 12.648H79.9315V18.276ZM79.9315 29.91H85.7695C88.0375 29.91 89.3395 28.902 89.3395 27.012C89.3395 25.248 88.0375 24.114 85.7695 24.114H79.9315V29.91ZM114.629 23.988L122.441 36H114.335L105.935 22.644V36H98.879V6.6H110.177C116.267 6.6 121.349 9.54 121.349 15.63C121.349 20.166 118.535 22.896 114.629 23.988ZM105.935 12.522V19.074H109.799C112.109 19.074 114.125 18.108 114.125 15.798C114.125 13.488 112.109 12.522 109.799 12.522H105.935ZM124.804 6.6H131.986V36H124.804V6.6ZM136.084 36V6.6H143.266V22.392L153.766 6.6H161.83L152.758 20.208L162.67 36H154.228L146.878 23.862H143.266V36H136.084ZM172.253 27.096L161.165 6.6H169.397L175.865 19.242L182.249 6.6H190.481L179.393 27.096V36H172.253V27.096ZM211.85 36.672C202.484 36.672 196.184 29.784 196.184 21.3C196.184 12.816 202.484 5.928 211.85 5.928C218.276 5.928 223.19 9.12 225.668 13.908L219.2 17.1C217.898 14.496 215.462 12.69 211.85 12.69C206.474 12.69 203.492 16.806 203.492 21.3C203.492 25.794 206.474 29.91 211.85 29.91C215.462 29.91 217.898 28.104 219.2 25.5L225.668 28.692C223.19 33.48 218.276 36.672 211.85 36.672ZM223.921 36L236.311 6.474H241.519L253.951 36H246.349L244.501 31.548H233.329L231.523 36H223.921ZM235.555 25.626H242.317L238.915 17.268L235.555 25.626ZM255.161 6.6H268.559C274.775 6.6 278.933 10.674 278.933 16.722C278.933 22.77 274.775 26.97 268.559 26.97H262.301V36H255.161V6.6ZM267.299 20.46C270.239 20.46 271.667 18.99 271.667 16.764C271.667 14.58 270.239 13.068 267.299 13.068H262.301V20.46H267.299ZM281.044 6.6H288.226V36H281.044V6.6ZM298.414 13.068H290.098V6.6H313.912V13.068H305.596V36H298.414V13.068ZM309.65 36L322.04 6.474H327.248L339.68 36H332.078L330.23 31.548H319.058L317.252 36H309.65ZM321.284 25.626H328.046L324.644 17.268L321.284 25.626ZM340.89 36V6.6H348.072V29.406H360.546V36H340.89Z" fill="white"/>
<defs>
<clipPath id="clip0_723_13">
<rect width="32.1429" height="42" fill="white" transform="translate(21.4287)"/>
</clipPath>
</defs>
</svg>
